<?xml version="1.0" encoding="UTF-8" standalone="no"?>
<!-- Created with Inkscape (http://www.inkscape.org/) -->

<svg
   width="16mm"
   height="16mm"
   viewBox="0 0 16 16"
   version="1.1"
   id="svg1756"
   inkscape:version="1.1 (c68e22c387, 2021-05-23)"
   sodipodi:docname="favicon.svg"
   xmlns:inkscape="http://www.inkscape.org/namespaces/inkscape"
   xmlns:sodipodi="http://sodipodi.sourceforge.net/DTD/sodipodi-0.dtd"
   xmlns:xlink="http://www.w3.org/1999/xlink"
   xmlns="http://www.w3.org/2000/svg"
   xmlns:svg="http://www.w3.org/2000/svg">
  <sodipodi:namedview
     id="namedview1758"
     pagecolor="#ffffff"
     bordercolor="#666666"
     borderopacity="1.0"
     inkscape:pageshadow="2"
     inkscape:pageopacity="0.0"
     inkscape:pagecheckerboard="0"
     inkscape:document-units="mm"
     showgrid="false"
     fit-margin-top="0"
     fit-margin-left="0"
     fit-margin-right="0"
     fit-margin-bottom="0"
     inkscape:zoom="3.0574074"
     inkscape:cx="17.989098"
     inkscape:cy="40.720775"
     inkscape:window-width="1920"
     inkscape:window-height="1017"
     inkscape:window-x="-8"
     inkscape:window-y="-8"
     inkscape:window-maximized="1"
     inkscape:current-layer="layer1" />
  <defs
     id="defs1753">
    <clipPath
       id="SVGID_2_">
      <use
         xlink:href="#SVGID_1_"
         overflow="visible"
         id="use5"
         x="0"
         y="0"
         width="100%"
         height="100%" />
    </clipPath>
    <clipPath
       id="SVGID_4_">
      <use
         xlink:href="#SVGID_3_"
         overflow="visible"
         id="use11"
         x="0"
         y="0"
         width="100%"
         height="100%" />
    </clipPath>
    <clipPath
       id="SVGID_6_">
      <use
         xlink:href="#SVGID_5_"
         overflow="visible"
         id="use17"
         x="0"
         y="0"
         width="100%"
         height="100%" />
    </clipPath>
    <clipPath
       id="clipPath1500">
      <use
         xlink:href="#SVGID_5_"
         overflow="visible"
         id="use1498"
         x="0"
         y="0"
         width="100%"
         height="100%" />
    </clipPath>
    <clipPath
       id="SVGID_8_">
      <use
         xlink:href="#SVGID_7_"
         overflow="visible"
         id="use25"
         x="0"
         y="0"
         width="100%"
         height="100%" />
    </clipPath>
    <clipPath
       id="clipPath1506">
      <use
         xlink:href="#SVGID_5_"
         overflow="visible"
         id="use1504"
         x="0"
         y="0"
         width="100%"
         height="100%" />
    </clipPath>
    <clipPath
       id="SVGID_10_">
      <use
         xlink:href="#SVGID_9_"
         overflow="visible"
         id="use37"
         x="0"
         y="0"
         width="100%"
         height="100%" />
    </clipPath>
    <clipPath
       id="clipPath1512">
      <use
         xlink:href="#SVGID_5_"
         overflow="visible"
         id="use1510"
         x="0"
         y="0"
         width="100%"
         height="100%" />
    </clipPath>
    <clipPath
       id="SVGID_12_">
      <use
         xlink:href="#SVGID_11_"
         overflow="visible"
         id="use49"
         x="0"
         y="0"
         width="100%"
         height="100%" />
    </clipPath>
    <clipPath
       id="clipPath1518">
      <use
         xlink:href="#SVGID_5_"
         overflow="visible"
         id="use1516"
         x="0"
         y="0"
         width="100%"
         height="100%" />
    </clipPath>
    <clipPath
       id="SVGID_14_">
      <use
         xlink:href="#SVGID_13_"
         overflow="visible"
         id="use61"
         x="0"
         y="0"
         width="100%"
         height="100%" />
    </clipPath>
    <clipPath
       id="clipPath1524">
      <use
         xlink:href="#SVGID_5_"
         overflow="visible"
         id="use1522"
         x="0"
         y="0"
         width="100%"
         height="100%" />
    </clipPath>
    <clipPath
       id="SVGID_16_">
      <use
         xlink:href="#SVGID_15_"
         overflow="visible"
         id="use73"
         x="0"
         y="0"
         width="100%"
         height="100%" />
    </clipPath>
    <clipPath
       id="clipPath1530">
      <use
         xlink:href="#SVGID_15_"
         overflow="visible"
         id="use1528"
         x="0"
         y="0"
         width="100%"
         height="100%" />
    </clipPath>
    <clipPath
       id="clipPath1534">
      <use
         xlink:href="#SVGID_15_"
         overflow="visible"
         id="use1532"
         x="0"
         y="0"
         width="100%"
         height="100%" />
    </clipPath>
    <clipPath
       id="clipPath1538">
      <use
         xlink:href="#SVGID_15_"
         overflow="visible"
         id="use1536"
         x="0"
         y="0"
         width="100%"
         height="100%" />
    </clipPath>
    <clipPath
       id="clipPath1542">
      <use
         xlink:href="#SVGID_15_"
         overflow="visible"
         id="use1540"
         x="0"
         y="0"
         width="100%"
         height="100%" />
    </clipPath>
    <clipPath
       id="clipPath1546">
      <use
         xlink:href="#SVGID_5_"
         overflow="visible"
         id="use1544"
         x="0"
         y="0"
         width="100%"
         height="100%" />
    </clipPath>
    <clipPath
       id="SVGID_18_">
      <use
         xlink:href="#SVGID_17_"
         overflow="visible"
         id="use93"
         x="0"
         y="0"
         width="100%"
         height="100%" />
    </clipPath>
    <clipPath
       id="clipPath1552">
      <use
         xlink:href="#SVGID_17_"
         overflow="visible"
         id="use1550"
         x="0"
         y="0"
         width="100%"
         height="100%" />
    </clipPath>
    <clipPath
       id="clipPath1556">
      <use
         xlink:href="#SVGID_17_"
         overflow="visible"
         id="use1554"
         x="0"
         y="0"
         width="100%"
         height="100%" />
    </clipPath>
    <clipPath
       id="clipPath1560">
      <use
         xlink:href="#SVGID_17_"
         overflow="visible"
         id="use1558"
         x="0"
         y="0"
         width="100%"
         height="100%" />
    </clipPath>
    <clipPath
       id="clipPath1564">
      <use
         xlink:href="#SVGID_17_"
         overflow="visible"
         id="use1562"
         x="0"
         y="0"
         width="100%"
         height="100%" />
    </clipPath>
    <clipPath
       id="clipPath1568">
      <use
         xlink:href="#SVGID_5_"
         overflow="visible"
         id="use1566"
         x="0"
         y="0"
         width="100%"
         height="100%" />
    </clipPath>
    <clipPath
       id="clipPath1572">
      <use
         xlink:href="#SVGID_5_"
         overflow="visible"
         id="use1570"
         x="0"
         y="0"
         width="100%"
         height="100%" />
    </clipPath>
    <clipPath
       id="SVGID_20_">
      <use
         xlink:href="#SVGID_19_"
         overflow="visible"
         id="use115"
         x="0"
         y="0"
         width="100%"
         height="100%" />
    </clipPath>
    <clipPath
       id="clipPath1578">
      <use
         xlink:href="#SVGID_5_"
         overflow="visible"
         id="use1576"
         x="0"
         y="0"
         width="100%"
         height="100%" />
    </clipPath>
    <clipPath
       id="SVGID_22_">
      <use
         xlink:href="#SVGID_21_"
         overflow="visible"
         id="use127"
         x="0"
         y="0"
         width="100%"
         height="100%" />
    </clipPath>
    <clipPath
       id="clipPath1584">
      <use
         xlink:href="#SVGID_5_"
         overflow="visible"
         id="use1582"
         x="0"
         y="0"
         width="100%"
         height="100%" />
    </clipPath>
    <clipPath
       id="clipPath1588">
      <use
         xlink:href="#SVGID_5_"
         overflow="visible"
         id="use1586"
         x="0"
         y="0"
         width="100%"
         height="100%" />
    </clipPath>
    <clipPath
       id="clipPath1592">
      <use
         xlink:href="#SVGID_5_"
         overflow="visible"
         id="use1590"
         x="0"
         y="0"
         width="100%"
         height="100%" />
    </clipPath>
    <clipPath
       id="SVGID_24_">
      <use
         xlink:href="#SVGID_23_"
         overflow="visible"
         id="use143"
         x="0"
         y="0"
         width="100%"
         height="100%" />
    </clipPath>
    <clipPath
       id="clipPath1598">
      <use
         xlink:href="#SVGID_5_"
         overflow="visible"
         id="use1596"
         x="0"
         y="0"
         width="100%"
         height="100%" />
    </clipPath>
    <clipPath
       id="SVGID_26_">
      <use
         xlink:href="#SVGID_25_"
         overflow="visible"
         id="use155"
         x="0"
         y="0"
         width="100%"
         height="100%" />
    </clipPath>
    <clipPath
       id="clipPath1604">
      <use
         xlink:href="#SVGID_5_"
         overflow="visible"
         id="use1602"
         x="0"
         y="0"
         width="100%"
         height="100%" />
    </clipPath>
    <clipPath
       id="SVGID_28_">
      <use
         xlink:href="#SVGID_27_"
         overflow="visible"
         id="use167"
         x="0"
         y="0"
         width="100%"
         height="100%" />
    </clipPath>
    <clipPath
       id="clipPath1610">
      <use
         xlink:href="#SVGID_5_"
         overflow="visible"
         id="use1608"
         x="0"
         y="0"
         width="100%"
         height="100%" />
    </clipPath>
    <clipPath
       id="clipPath1614">
      <use
         xlink:href="#SVGID_5_"
         overflow="visible"
         id="use1612"
         x="0"
         y="0"
         width="100%"
         height="100%" />
    </clipPath>
    <rect
       id="SVGID_1_"
       x="-13"
       y="-23"
       width="300"
       height="300" />
    <rect
       id="SVGID_3_"
       x="-13"
       y="-23"
       width="300"
       height="300" />
    <rect
       id="SVGID_5_"
       x="-13"
       y="-23"
       width="300"
       height="300" />
    <rect
       id="SVGID_7_"
       x="193.25"
       y="131.688"
       width="60.938"
       height="56.25" />
    <rect
       id="SVGID_9_"
       x="10.438"
       y="28.563"
       width="32.813"
       height="215.625" />
    <rect
       id="SVGID_11_"
       x="10.438"
       y="211.375"
       width="243.75"
       height="32.813" />
    <rect
       id="SVGID_13_"
       x="10.438"
       y="28.563"
       width="243.75"
       height="51.563" />
    <rect
       id="SVGID_15_"
       x="24.497999"
       y="61.375"
       width="215.655"
       height="46.875" />
    <rect
       id="SVGID_17_"
       x="24.497999"
       y="183.287"
       width="215.655"
       height="46.838001" />
    <rect
       id="SVGID_19_"
       x="10.438"
       y="9.8129997"
       width="32.813"
       height="37.5" />
    <rect
       id="SVGID_21_"
       x="10.433"
       y="21.531"
       width="225.005"
       height="25.781" />
    <rect
       id="SVGID_23_"
       x="240.125"
       y="122.313"
       width="23.438"
       height="46.875" />
    <rect
       id="SVGID_25_"
       x="197.938"
       y="145.75"
       width="65.625"
       height="23.438" />
    <rect
       id="SVGID_27_"
       x="197.938"
       y="122.313"
       width="65.625"
       height="23.438" />
  </defs>
  <g
     inkscape:label="Camada 1"
     inkscape:groupmode="layer"
     id="layer1">
    <g
       id="g186"
       transform="matrix(0.06095192,0,0,0.06095192,0.00379123,0.18356462)"
       style="stroke-width:4.34085">
      <g
         id="g184"
         style="stroke-width:4.34085">
        <defs
           id="defs3">
          <rect
             id="rect2224"
             x="-13"
             y="-23"
             width="300"
             height="300" />
        </defs>
        <clipPath
           id="clipPath1622">
          <use
             xlink:href="#SVGID_1_"
             overflow="visible"
             id="use1620"
             x="0"
             y="0"
             width="100%"
             height="100%" />
        </clipPath>
        <g
           clip-path="url(#SVGID_2_)"
           id="g182"
           style="stroke-width:4.34085">
          <defs
             id="defs9">
            <rect
               id="rect2229"
               x="-13"
               y="-23"
               width="300"
               height="300" />
          </defs>
          <clipPath
             id="clipPath1628">
            <use
               xlink:href="#SVGID_3_"
               overflow="visible"
               id="use1626"
               x="0"
               y="0"
               width="100%"
               height="100%" />
          </clipPath>
          <g
             clip-path="url(#SVGID_4_)"
             id="g180"
             style="stroke-width:4.34085">
            <defs
               id="defs15">
              <rect
                 id="rect2234"
                 x="-13"
                 y="-23"
                 width="300"
                 height="300" />
            </defs>
            <clipPath
               id="clipPath1634">
              <use
                 xlink:href="#SVGID_5_"
                 overflow="visible"
                 id="use1632"
                 x="0"
                 y="0"
                 width="100%"
                 height="100%" />
            </clipPath>
            <path
               clip-path="url(#SVGID_6_)"
               fill="#b7837d"
               d="m 254.188,66.063 c 0,-10.354 -8.396,-18.75 -18.75,-18.75 H 29.188 c -10.354,0 -18.75,-8.396 -18.75,-18.75 v 196.875 c 0,10.354 8.396,18.75 18.75,18.75 h 206.25 c 10.354,0 18.75,-8.396 18.75,-18.75 z"
               id="path20"
               style="stroke-width:4.75504" />
            <g
               opacity="0.2"
               clip-path="url(#SVGID_6_)"
               enable-background="new    "
               id="g32"
               style="stroke-width:4.75504">
              <g
                 id="g30"
                 style="stroke-width:4.34085">
                <defs
                   id="defs23">
                  <rect
                     id="rect2240"
                     x="193.25"
                     y="131.688"
                     width="60.938"
                     height="56.25" />
                </defs>
                <clipPath
                   id="clipPath1641">
                  <use
                     xlink:href="#SVGID_7_"
                     overflow="visible"
                     id="use1639"
                     x="0"
                     y="0"
                     width="100%"
                     height="100%" />
                </clipPath>
                <path
                   clip-path="url(#SVGID_8_)"
                   fill="#5e0000"
                   d="m 207.313,131.688 c -7.764,0.009 -14.054,6.299 -14.063,14.063 v 28.125 c 0.009,7.764 6.299,14.054 14.063,14.063 h 46.875 v -56.25 h -46.875 z"
                   id="path28"
                   style="stroke-width:4.75504" />
              </g>
            </g>
            <g
               opacity="0.2"
               clip-path="url(#SVGID_6_)"
               enable-background="new    "
               id="g44"
               style="stroke-width:4.75504">
              <g
                 id="g42"
                 style="stroke-width:4.34085">
                <defs
                   id="defs35">
                  <rect
                     id="rect2248"
                     x="10.438"
                     y="28.563"
                     width="32.813"
                     height="215.625" />
                </defs>
                <clipPath
                   id="clipPath1650">
                  <use
                     xlink:href="#SVGID_9_"
                     overflow="visible"
                     id="use1648"
                     x="0"
                     y="0"
                     width="100%"
                     height="100%" />
                </clipPath>
                <path
                   clip-path="url(#SVGID_10_)"
                   fill="#750000"
                   d="M 24.5,225.438 V 46.646 C 16.235,44.534 10.451,37.092 10.437,28.562 v 196.875 c 0,10.354 8.396,18.75 18.75,18.75 H 43.25 C 32.896,244.188 24.5,235.792 24.5,225.438"
                   id="path40"
                   style="stroke-width:4.75504" />
              </g>
            </g>
            <g
               opacity="0.2"
               clip-path="url(#SVGID_6_)"
               enable-background="new    "
               id="g56"
               style="stroke-width:4.75504">
              <g
                 id="g54"
                 style="stroke-width:4.34085">
                <defs
                   id="defs47">
                  <rect
                     id="rect2256"
                     x="10.438"
                     y="211.375"
                     width="243.75"
                     height="32.813" />
                </defs>
                <clipPath
                   id="clipPath1659">
                  <use
                     xlink:href="#SVGID_11_"
                     overflow="visible"
                     id="use1657"
                     x="0"
                     y="0"
                     width="100%"
                     height="100%" />
                </clipPath>
                <path
                   clip-path="url(#SVGID_12_)"
                   fill="#750000"
                   d="M 235.438,230.125 H 29.188 c -10.354,0 -18.75,-8.396 -18.75,-18.75 v 14.063 c 0,10.354 8.396,18.75 18.75,18.75 h 206.25 c 10.354,0 18.75,-8.396 18.75,-18.75 v -14.063 c 0,10.354 -8.396,18.75 -18.75,18.75"
                   id="path52"
                   style="stroke-width:4.75504" />
              </g>
            </g>
            <g
               opacity="0.5"
               clip-path="url(#SVGID_6_)"
               enable-background="new    "
               id="g68"
               style="stroke-width:4.75504">
              <g
                 id="g66"
                 style="stroke-width:4.34085">
                <defs
                   id="defs59">
                  <rect
                     id="rect2264"
                     x="10.438"
                     y="28.563"
                     width="243.75"
                     height="51.563" />
                </defs>
                <clipPath
                   id="clipPath1668">
                  <use
                     xlink:href="#SVGID_13_"
                     overflow="visible"
                     id="use1666"
                     x="0"
                     y="0"
                     width="100%"
                     height="100%" />
                </clipPath>
                <path
                   clip-path="url(#SVGID_14_)"
                   fill="#ffffff"
                   d="M 235.438,47.313 H 29.188 c -10.354,0 -18.75,-8.396 -18.75,-18.75 v 14.063 c 0,10.354 8.396,18.75 18.75,18.75 h 206.25 c 10.354,0 18.75,8.396 18.75,18.75 V 66.063 c 0,-10.355 -8.396,-18.75 -18.75,-18.75"
                   id="path64"
                   style="stroke-width:4.75504" />
              </g>
            </g>
            <g
               opacity="0.5"
               clip-path="url(#SVGID_6_)"
               id="g88"
               style="stroke-width:4.75504">
              <g
                 id="g86"
                 style="stroke-width:4.34085">
                <defs
                   id="defs71">
                  <rect
                     id="rect2272"
                     x="24.497999"
                     y="61.375"
                     width="215.655"
                     height="46.875" />
                </defs>
                <clipPath
                   id="clipPath1677">
                  <use
                     xlink:href="#SVGID_15_"
                     overflow="visible"
                     id="use1675"
                     x="0"
                     y="0"
                     width="100%"
                     height="100%" />
                </clipPath>
                <path
                   clip-path="url(#SVGID_16_)"
                   fill="#5c5ca0"
                   d="m 235.438,108.25 c -0.613,-0.005 -1.218,-0.135 -1.781,-0.375 -0.571,-0.224 -1.094,-0.563 -1.547,-0.984 -1.817,-1.852 -1.817,-4.809 0,-6.656 0.453,-0.426 0.976,-0.76 1.547,-0.984 1.131,-0.492 2.432,-0.492 3.563,0 0.571,0.224 1.094,0.563 1.547,0.984 1.845,1.824 1.845,4.791 0.027,6.629 -0.894,0.894 -2.093,1.391 -3.356,1.386"
                   id="path76"
                   style="stroke-width:4.75504" />
                <path
                   clip-path="url(#SVGID_16_)"
                   fill="#5c5ca0"
                   d="m 230.75,84.813 c 0.009,-2.586 2.102,-4.683 4.688,-4.688 2.586,0.005 4.679,2.101 4.688,4.688 -0.009,2.586 -2.102,4.678 -4.688,4.688 -2.586,-0.01 -4.679,-2.102 -4.688,-4.688"
                   id="path78"
                   style="stroke-width:4.75504" />
                <path
                   clip-path="url(#SVGID_16_)"
                   fill="#5c5ca0"
                   d="m 235.438,70.75 c -0.613,0.014 -1.227,-0.112 -1.781,-0.375 -0.571,-0.224 -1.094,-0.563 -1.547,-0.984 -0.855,-0.895 -1.341,-2.085 -1.359,-3.328 -0.019,-0.613 0.109,-1.229 0.375,-1.781 0.238,-0.568 0.572,-1.092 0.984,-1.547 1.863,-1.767 4.793,-1.767 6.656,0 0.412,0.456 0.746,0.979 0.984,1.547 0.266,0.552 0.389,1.167 0.375,1.781 0.023,2.563 -2.032,4.665 -4.596,4.688 h -0.091 z"
                   id="path80"
                   style="stroke-width:4.75504" />
                <path
                   clip-path="url(#SVGID_16_)"
                   fill="#5c5ca0"
                   d="m 212,66.063 c 0.009,-2.586 2.102,-4.683 4.688,-4.688 2.586,0.005 4.679,2.101 4.688,4.688 -0.009,2.586 -2.102,4.678 -4.688,4.688 -2.586,-0.01 -4.679,-2.102 -4.688,-4.688 m -18.75,0 c 0.009,-2.586 2.102,-4.683 4.688,-4.688 2.586,0.005 4.679,2.101 4.688,4.688 -0.009,2.586 -2.102,4.678 -4.688,4.688 -2.586,-0.01 -4.679,-2.102 -4.688,-4.688 m -18.75,0 c 0.009,-2.586 2.102,-4.683 4.688,-4.688 2.586,0.005 4.679,2.101 4.688,4.688 -0.009,2.586 -2.102,4.678 -4.688,4.688 -2.586,-0.01 -4.679,-2.102 -4.688,-4.688 m -18.75,0 c 0.009,-2.586 2.102,-4.683 4.688,-4.688 2.586,0.005 4.679,2.101 4.688,4.688 -0.009,2.586 -2.102,4.678 -4.688,4.688 -2.586,-0.01 -4.679,-2.102 -4.688,-4.688 m -18.75,0 c 0.009,-2.586 2.102,-4.683 4.688,-4.688 2.586,0.005 4.679,2.101 4.688,4.688 -0.009,2.586 -2.102,4.678 -4.688,4.688 -2.586,-0.01 -4.679,-2.102 -4.688,-4.688 m -18.75,0 c 0.009,-2.586 2.101,-4.683 4.688,-4.688 2.586,0.005 4.678,2.101 4.688,4.688 -0.009,2.586 -2.101,4.678 -4.688,4.688 -2.587,-0.01 -4.679,-2.102 -4.688,-4.688 m -18.75,0 c 0.009,-2.586 2.101,-4.683 4.688,-4.688 2.586,0.005 4.678,2.101 4.688,4.688 -0.009,2.586 -2.101,4.678 -4.688,4.688 -2.587,-0.01 -4.679,-2.102 -4.688,-4.688 m -18.75,0 c 0.009,-2.586 2.101,-4.683 4.688,-4.688 2.586,0.005 4.678,2.101 4.688,4.688 -0.009,2.586 -2.101,4.678 -4.688,4.688 -2.587,-0.01 -4.679,-2.102 -4.688,-4.688 m -18.75,0 c 0.009,-2.586 2.101,-4.683 4.688,-4.688 2.586,0.005 4.678,2.101 4.688,4.688 -0.009,2.586 -2.101,4.678 -4.688,4.688 C 64.101,70.741 62.009,68.649 62,66.063 m -18.75,0 c 0.009,-2.586 2.101,-4.683 4.688,-4.688 2.586,0.005 4.678,2.101 4.688,4.688 -0.009,2.586 -2.101,4.678 -4.688,4.688 -2.587,-0.01 -4.679,-2.102 -4.688,-4.688"
                   id="path82"
                   style="stroke-width:4.75504" />
                <path
                   clip-path="url(#SVGID_16_)"
                   fill="#6d6daa"
                   d="m 29.188,70.75 c -1.243,-0.019 -2.433,-0.501 -3.328,-1.359 -0.412,-0.456 -0.746,-0.979 -0.984,-1.547 -0.268,-0.556 -0.394,-1.167 -0.375,-1.781 0.019,-1.243 0.501,-2.433 1.359,-3.328 0.451,-0.426 0.975,-0.76 1.547,-0.984 1.138,-0.469 2.424,-0.469 3.562,0 0.568,0.233 1.087,0.572 1.547,0.984 0.858,0.899 1.341,2.085 1.359,3.328 -0.009,0.613 -0.135,1.218 -0.375,1.781 -0.238,0.568 -0.572,1.092 -0.984,1.547 -0.895,0.858 -2.086,1.34 -3.328,1.359"
                   id="path84"
                   style="stroke-width:4.75504" />
              </g>
            </g>
            <g
               opacity="0.5"
               clip-path="url(#SVGID_6_)"
               id="g108"
               style="stroke-width:4.75504">
              <g
                 id="g106"
                 style="stroke-width:4.34085">
                <defs
                   id="defs91">
                  <rect
                     id="rect2284"
                     x="24.497999"
                     y="183.287"
                     width="215.655"
                     height="46.838001" />
                </defs>
                <clipPath
                   id="clipPath1690">
                  <use
                     xlink:href="#SVGID_17_"
                     overflow="visible"
                     id="use1688"
                     x="0"
                     y="0"
                     width="100%"
                     height="100%" />
                </clipPath>
                <path
                   clip-path="url(#SVGID_18_)"
                   fill="#6d6daa"
                   d="m 235.438,192.625 c -0.613,-0.005 -1.218,-0.138 -1.781,-0.375 -0.571,-0.225 -1.094,-0.563 -1.547,-0.984 -1.817,-1.854 -1.817,-4.812 0,-6.656 1.863,-1.767 4.793,-1.767 6.656,0 1.845,1.826 1.845,4.793 0.027,6.629 -0.893,0.892 -2.092,1.391 -3.355,1.386"
                   id="path96"
                   style="stroke-width:4.75504" />
                <path
                   clip-path="url(#SVGID_18_)"
                   fill="#6d6daa"
                   d="m 230.75,206.688 c 0.009,-2.586 2.102,-4.683 4.688,-4.688 2.586,0.005 4.679,2.102 4.688,4.688 -0.009,2.586 -2.102,4.679 -4.688,4.688 -2.586,-0.01 -4.679,-2.103 -4.688,-4.688"
                   id="path98"
                   style="stroke-width:4.75504" />
                <path
                   clip-path="url(#SVGID_18_)"
                   fill="#6d6daa"
                   d="m 235.438,230.125 c -0.613,-0.005 -1.218,-0.138 -1.781,-0.375 -0.571,-0.225 -1.094,-0.563 -1.547,-0.984 -0.201,-0.225 -0.389,-0.463 -0.563,-0.7 -0.179,-0.266 -0.32,-0.55 -0.422,-0.847 -0.137,-0.266 -0.229,-0.555 -0.283,-0.843 -0.051,-0.312 -0.083,-0.627 -0.092,-0.938 0.019,-1.245 0.504,-2.436 1.359,-3.328 0.453,-0.426 0.976,-0.76 1.547,-0.984 1.744,-0.732 3.759,-0.343 5.109,0.984 0.188,0.233 0.375,0.472 0.563,0.7 0.174,0.266 0.312,0.55 0.422,0.847 0.137,0.262 0.229,0.545 0.274,0.843 0.133,0.618 0.133,1.259 0,1.877 -0.046,0.288 -0.138,0.577 -0.274,0.843 -0.102,0.297 -0.243,0.581 -0.422,0.847 -0.188,0.229 -0.375,0.467 -0.563,0.7 -0.892,0.854 -2.082,1.339 -3.327,1.358"
                   id="path100"
                   style="stroke-width:4.75504" />
                <path
                   clip-path="url(#SVGID_18_)"
                   fill="#6d6daa"
                   d="m 212,225.438 c 0.009,-2.586 2.102,-4.683 4.688,-4.688 2.586,0.005 4.679,2.102 4.688,4.688 -0.009,2.586 -2.102,4.679 -4.688,4.688 -2.586,-0.01 -4.679,-2.103 -4.688,-4.688 m -18.75,0 c 0.009,-2.586 2.102,-4.683 4.688,-4.688 2.586,0.005 4.679,2.102 4.688,4.688 -0.009,2.586 -2.102,4.679 -4.688,4.688 -2.586,-0.01 -4.679,-2.103 -4.688,-4.688 m -18.75,0 c 0.009,-2.586 2.102,-4.683 4.688,-4.688 2.586,0.005 4.679,2.102 4.688,4.688 -0.009,2.586 -2.102,4.679 -4.688,4.688 -2.586,-0.01 -4.679,-2.103 -4.688,-4.688 m -18.75,0 c 0.009,-2.586 2.102,-4.683 4.688,-4.688 2.586,0.005 4.679,2.102 4.688,4.688 -0.009,2.586 -2.102,4.679 -4.688,4.688 -2.586,-0.01 -4.679,-2.103 -4.688,-4.688 m -18.75,0 c 0.009,-2.586 2.102,-4.683 4.688,-4.688 2.586,0.005 4.679,2.102 4.688,4.688 -0.009,2.586 -2.102,4.679 -4.688,4.688 -2.586,-0.01 -4.679,-2.103 -4.688,-4.688 m -18.75,0 c 0.009,-2.586 2.101,-4.683 4.688,-4.688 2.586,0.005 4.678,2.102 4.688,4.688 -0.009,2.586 -2.101,4.679 -4.688,4.688 -2.587,-0.01 -4.679,-2.103 -4.688,-4.688 m -18.75,0 c 0.009,-2.586 2.101,-4.683 4.688,-4.688 2.586,0.005 4.678,2.102 4.688,4.688 -0.009,2.586 -2.101,4.679 -4.688,4.688 -2.587,-0.01 -4.679,-2.103 -4.688,-4.688 m -18.75,0 c 0.009,-2.586 2.101,-4.683 4.688,-4.688 2.586,0.005 4.678,2.102 4.688,4.688 -0.009,2.586 -2.101,4.679 -4.688,4.688 -2.587,-0.01 -4.679,-2.103 -4.688,-4.688 m -18.75,0 c 0.009,-2.586 2.101,-4.683 4.688,-4.688 2.586,0.005 4.678,2.102 4.688,4.688 -0.009,2.586 -2.101,4.679 -4.688,4.688 -2.587,-0.01 -4.679,-2.103 -4.688,-4.688 m -18.75,0 c 0.009,-2.586 2.101,-4.683 4.688,-4.688 2.586,0.005 4.678,2.102 4.688,4.688 -0.009,2.586 -2.101,4.679 -4.688,4.688 -2.587,-0.01 -4.679,-2.103 -4.688,-4.688"
                   id="path102"
                   style="stroke-width:4.75504" />
                <path
                   clip-path="url(#SVGID_18_)"
                   fill="#6d6daa"
                   d="m 29.188,230.125 c -1.243,-0.019 -2.433,-0.504 -3.328,-1.359 -0.867,-0.893 -1.35,-2.083 -1.359,-3.328 -0.019,-0.613 0.107,-1.227 0.375,-1.781 0.238,-0.567 0.572,-1.094 0.984,-1.547 1.879,-1.734 4.777,-1.734 6.656,0 0.412,0.453 0.746,0.979 0.984,1.547 0.245,0.563 0.366,1.168 0.375,1.781 -0.009,1.245 -0.492,2.436 -1.359,3.328 -0.895,0.855 -2.086,1.34 -3.328,1.359"
                   id="path104"
                   style="stroke-width:4.75504" />
              </g>
            </g>
            <path
               clip-path="url(#SVGID_6_)"
               fill="#c1a3a0"
               d="m 235.438,47.313 v -18.75 c 0,-10.354 -8.396,-18.75 -18.75,-18.75 h -187.5 c -10.354,0 -18.75,8.396 -18.75,18.75 0,10.354 8.396,18.75 18.75,18.75 z"
               id="path110"
               style="stroke-width:4.75504" />
            <g
               opacity="0.2"
               clip-path="url(#SVGID_6_)"
               enable-background="new    "
               id="g122"
               style="stroke-width:4.75504">
              <g
                 id="g120"
                 style="stroke-width:4.34085">
                <defs
                   id="defs113">
                  <rect
                     id="rect2297"
                     x="10.438"
                     y="9.8129997"
                     width="32.813"
                     height="37.5" />
                </defs>
                <clipPath
                   id="clipPath1704">
                  <use
                     xlink:href="#SVGID_19_"
                     overflow="visible"
                     id="use1702"
                     x="0"
                     y="0"
                     width="100%"
                     height="100%" />
                </clipPath>
                <path
                   clip-path="url(#SVGID_20_)"
                   fill="#750000"
                   d="m 24.5,28.563 c 0,-10.354 8.396,-18.75 18.75,-18.75 H 29.188 c -10.354,0 -18.75,8.396 -18.75,18.75 0,10.354 8.396,18.75 18.75,18.75 H 43.25 c -10.354,0 -18.75,-8.396 -18.75,-18.75"
                   id="path118"
                   style="stroke-width:4.75504" />
              </g>
            </g>
            <g
               opacity="0.2"
               clip-path="url(#SVGID_6_)"
               enable-background="new    "
               id="g134"
               style="stroke-width:4.75504">
              <g
                 id="g132"
                 style="stroke-width:4.34085">
                <defs
                   id="defs125">
                  <rect
                     id="rect2305"
                     x="10.433"
                     y="21.531"
                     width="225.005"
                     height="25.781" />
                </defs>
                <clipPath
                   id="clipPath1713">
                  <use
                     xlink:href="#SVGID_21_"
                     overflow="visible"
                     id="use1711"
                     x="0"
                     y="0"
                     width="100%"
                     height="100%" />
                </clipPath>
                <path
                   clip-path="url(#SVGID_22_)"
                   fill="#510404"
                   d="m 11.829,21.531 c -3.909,9.563 0.675,20.485 10.238,24.395 2.259,0.917 4.678,1.392 7.121,1.387 h 206.25 V 33.25 H 29.188 C 21.552,33.245 14.683,28.608 11.829,21.531"
                   id="path130"
                   style="stroke-width:4.75504" />
              </g>
            </g>
            <path
               clip-path="url(#SVGID_6_)"
               fill="#50509b"
               d="M 240.125,43.099 V 28.563 C 240.111,15.626 229.624,5.139 216.687,5.125 h -187.5 c -12.947,0 -23.436,10.492 -23.438,23.434 0,0 0,0 0,10e-4 v 196.877 c 0.014,12.941 10.501,23.419 23.438,23.438 h 206.25 c 12.937,-0.019 23.424,-10.496 23.438,-23.438 V 66.06 c -0.012,-11.331 -8.06,-20.779 -18.75,-22.961 z M 29.188,14.5 h 187.5 c 7.764,0.009 14.054,6.301 14.063,14.063 v 14.06 H 29.188 C 21.427,42.614 15.135,36.33 15.125,28.562 15.126,20.793 21.419,14.5 29.188,14.5 Z M 249.5,225.438 c -0.009,7.764 -6.299,14.054 -14.063,14.063 H 29.188 C 21.427,239.492 15.135,233.202 15.125,225.438 V 47.314 c 1.986,1.492 4.22,2.67 6.625,3.474 0.014,0.005 0.027,0.01 0.041,0.014 0.585,0.194 1.18,0.368 1.784,0.517 0.001,0 0.003,10e-4 0.005,10e-4 0.594,0.146 1.197,0.269 1.808,0.369 0.015,0.002 0.03,0.006 0.045,0.008 0.574,0.092 1.155,0.161 1.742,0.211 0.088,0.007 0.176,0.014 0.264,0.02 0.578,0.043 1.16,0.072 1.749,0.072 h 206.25 0.005 c 0.005,0 0.01,-10e-4 0.015,-10e-4 7.755,0.02 14.034,6.307 14.043,14.062 v 159.377 z"
               id="path136"
               style="stroke-width:4.75504" />
            <path
               clip-path="url(#SVGID_6_)"
               fill="#aa7974"
               d="m 207.313,122.313 h 46.875 c 5.173,0 9.375,4.2 9.375,9.375 v 28.125 c 0,5.173 -4.202,9.375 -9.375,9.375 h -46.875 c -5.173,0 -9.375,-4.202 -9.375,-9.375 v -28.125 c 0,-5.175 4.202,-9.375 9.375,-9.375"
               id="path138"
               style="stroke-width:4.75504" />
            <g
               opacity="0.2"
               clip-path="url(#SVGID_6_)"
               enable-background="new    "
               id="g150"
               style="stroke-width:4.75504">
              <g
                 id="g148"
                 style="stroke-width:4.34085">
                <defs
                   id="defs141">
                  <rect
                     id="rect2315"
                     x="240.125"
                     y="122.313"
                     width="23.438"
                     height="46.875" />
                </defs>
                <clipPath
                   id="clipPath1724">
                  <use
                     xlink:href="#SVGID_23_"
                     overflow="visible"
                     id="use1722"
                     x="0"
                     y="0"
                     width="100%"
                     height="100%" />
                </clipPath>
                <path
                   clip-path="url(#SVGID_24_)"
                   fill="#750000"
                   d="m 254.188,122.313 h -14.063 c 5.173,0 9.375,4.2 9.375,9.375 v 28.125 c 0,5.173 -4.202,9.375 -9.375,9.375 h 14.063 c 5.173,0 9.375,-4.202 9.375,-9.375 v -28.125 c 0,-5.175 -4.203,-9.375 -9.375,-9.375"
                   id="path146"
                   style="stroke-width:4.75504" />
              </g>
            </g>
            <g
               opacity="0.2"
               clip-path="url(#SVGID_6_)"
               enable-background="new    "
               id="g162"
               style="stroke-width:4.75504">
              <g
                 id="g160"
                 style="stroke-width:4.34085">
                <defs
                   id="defs153">
                  <rect
                     id="rect2323"
                     x="197.938"
                     y="145.75"
                     width="65.625"
                     height="23.438" />
                </defs>
                <clipPath
                   id="clipPath1733">
                  <use
                     xlink:href="#SVGID_25_"
                     overflow="visible"
                     id="use1731"
                     x="0"
                     y="0"
                     width="100%"
                     height="100%" />
                </clipPath>
                <path
                   clip-path="url(#SVGID_26_)"
                   fill="#5b0101"
                   d="m 254.188,155.125 h -46.875 c -5.173,0 -9.375,-4.202 -9.375,-9.375 v 14.063 c 0,5.173 4.202,9.375 9.375,9.375 h 46.875 c 5.173,0 9.375,-4.202 9.375,-9.375 V 145.75 c 0,5.173 -4.203,9.375 -9.375,9.375"
                   id="path158"
                   style="stroke-width:4.75504" />
              </g>
            </g>
            <g
               opacity="0.5"
               clip-path="url(#SVGID_6_)"
               enable-background="new    "
               id="g174"
               style="stroke-width:4.75504">
              <g
                 id="g172"
                 style="stroke-width:4.34085">
                <defs
                   id="defs165">
                  <rect
                     id="rect2331"
                     x="197.938"
                     y="122.313"
                     width="65.625"
                     height="23.438" />
                </defs>
                <clipPath
                   id="clipPath1742">
                  <use
                     xlink:href="#SVGID_27_"
                     overflow="visible"
                     id="use1740"
                     x="0"
                     y="0"
                     width="100%"
                     height="100%" />
                </clipPath>
                <path
                   clip-path="url(#SVGID_28_)"
                   fill="#ffffff"
                   d="m 254.188,122.313 h -46.875 c -5.173,0 -9.375,4.2 -9.375,9.375 v 14.063 c 0,-5.173 4.202,-9.375 9.375,-9.375 h 46.875 c 5.173,0 9.375,4.202 9.375,9.375 v -14.063 c 0,-5.175 -4.203,-9.375 -9.375,-9.375"
                   id="path170"
                   style="stroke-width:4.75504" />
              </g>
            </g>
            <path
               clip-path="url(#SVGID_6_)"
               fill="#5c5ca0"
               d="m 221.375,155.125 c -5.173,0 -9.375,-4.197 -9.375,-9.375 0,-5.178 4.202,-9.375 9.375,-9.375 5.173,0 9.375,4.197 9.375,9.375 -0.005,5.173 -4.202,9.366 -9.375,9.375"
               id="path176"
               style="stroke-width:4.75504" />
            <path
               clip-path="url(#SVGID_6_)"
               fill="#50509b"
               d="m 254.188,173.875 h -46.875 c -7.764,-0.009 -14.054,-6.299 -14.063,-14.063 v -28.125 c 0.009,-7.761 6.299,-14.053 14.063,-14.063 h 46.875 c 7.764,0.009 14.054,6.301 14.063,14.063 v 28.125 c -0.01,7.764 -6.3,14.054 -14.063,14.063 M 207.313,127 c -2.586,0 -4.683,2.102 -4.688,4.688 v 28.125 c 0.005,2.586 2.102,4.688 4.688,4.688 h 46.875 c 2.586,0 4.683,-2.102 4.688,-4.688 V 131.688 C 258.871,129.102 256.774,127 254.188,127 Z"
               id="path178"
               style="stroke-width:4.75504" />
          </g>
        </g>
      </g>
    </g>
  </g>
</svg>
